<?xml version="1.0" standalone="no"?>
<!DOCTYPE svg PUBLIC "-//W3C//DTD SVG 20010904//EN"
 "http://www.w3.org/TR/2001/REC-SVG-20010904/DTD/svg10.dtd">
<svg version="1.0" xmlns="http://www.w3.org/2000/svg"
 width="563.000000pt" height="144.000000pt" viewBox="0 0 563.000000 144.000000"
 preserveAspectRatio="xMidYMid meet">

<g transform="translate(0.000000,144.000000) scale(0.100000,-0.100000)"
fill="#000000" stroke="none">
<path d="M1555 765 c8 -193 14 -250 16 -134 l1 64 12 -45 c17 -60 27 -82 21
-45 -3 17 -14 99 -25 184 -11 85 -22 157 -26 160 -3 3 -2 -79 1 -184z"/>
<path d="M3667 910 c-3 -25 -10 -87 -14 -137 l-9 -93 29 0 28 0 -7 98 c-3 53
-10 115 -14 137 l-7 40 -6 -45z m14 -192 c-2 -10 -7 -18 -12 -18 -11 0 -11 41
-1 95 l7 40 5 -50 c3 -27 4 -58 1 -67z"/>
<path d="M4797 910 c-3 -25 -10 -87 -14 -137 l-9 -93 29 0 28 0 -7 98 c-3 53
-10 115 -14 137 l-7 40 -6 -45z m10 -182 c-2 -18 -4 -4 -4 32 0 36 2 50 4 33
2 -18 2 -48 0 -65z"/>
<path d="M530 839 l0 -100 33 3 c26 2 32 8 34 28 l3 25 -10 -23 c-6 -15 -17
-22 -27 -20 -16 3 -18 16 -18 96 0 50 -3 92 -7 92 -5 0 -8 -45 -8 -101z"/>
<path d="M582 926 c7 -8 15 -12 17 -11 5 6 -10 25 -20 25 -5 0 -4 -6 3 -14z"/>
<path d="M724 760 c0 -102 2 -143 3 -92 2 50 2 134 0 185 -1 50 -3 9 -3 -93z"/>
<path d="M2576 927 c3 -10 9 -15 12 -12 3 3 0 11 -7 18 -10 9 -11 8 -5 -6z"/>
<path d="M2956 843 c-4 -54 -10 -113 -13 -130 -5 -31 -4 -33 25 -33 l30 0 -5
68 c-7 88 -13 92 -13 9 0 -38 -4 -67 -10 -67 -6 0 -10 32 -10 75 0 43 4 75 10
75 6 0 10 23 10 50 0 88 -17 54 -24 -47z"/>
<path d="M4337 828 c5 -155 13 -224 23 -208 6 10 9 8 14 -6 3 -10 4 -1 1 21
-2 22 -9 100 -16 173 -7 72 -16 132 -20 132 -4 0 -5 -51 -2 -112z"/>
<path d="M4561 925 c-1 -11 -10 -94 -21 -185 -10 -90 -17 -166 -16 -168 2 -2
7 10 12 25 l8 28 6 -35 c7 -41 25 278 18 325 -3 17 -6 22 -7 10z"/>
<path d="M412 900 c0 -19 2 -27 5 -17 2 9 2 25 0 35 -3 9 -5 1 -5 -18z"/>
<path d="M333 840 c0 -47 2 -66 4 -42 2 23 2 61 0 85 -2 23 -4 4 -4 -43z"/>
<path d="M1043 875 c0 -27 2 -38 4 -22 2 15 2 37 0 50 -2 12 -4 0 -4 -28z"/>
<path d="M1671 850 l-3 -75 -14 50 c-13 48 -13 48 -9 10 10 -102 39 -285 44
-285 5 0 -1 181 -12 325 -3 41 -4 37 -6 -25z"/>
<path d="M3422 900 c0 -14 2 -19 5 -12 2 6 2 18 0 25 -3 6 -5 1 -5 -13z"/>
<path d="M1631 894 c0 -11 3 -14 6 -6 3 7 2 16 -1 19 -3 4 -6 -2 -5 -13z"/>
<path d="M683 835 c0 -38 2 -53 4 -32 2 20 2 52 0 70 -2 17 -4 1 -4 -38z"/>
<path d="M448 853 c-3 -21 -2 -60 2 -88 7 -45 7 -40 9 38 1 92 -3 112 -11 50z"/>
<path d="M4465 803 l-8 -48 -13 40 c-12 36 -12 29 -7 -70 5 -110 20 -207 22
-155 1 14 6 81 11 150 9 132 7 162 -5 83z"/>
<path d="M417 833 c-4 -3 -6 -27 -6 -52 l2 -46 7 50 c8 53 7 59 -3 48z"/>
<path d="M2674 745 c0 -55 1 -76 3 -47 2 29 2 74 0 100 -2 26 -3 2 -3 -53z"/>
<path d="M4964 690 c0 -85 2 -120 3 -77 2 42 2 112 0 155 -1 42 -3 7 -3 -78z"/>
<path d="M1331 808 c-1 -21 4 -28 17 -28 11 0 13 3 6 8 -7 4 -14 16 -17 27 -4
15 -5 14 -6 -7z"/>
<path d="M4711 814 c0 -11 3 -14 6 -6 3 7 2 16 -1 19 -3 4 -6 -2 -5 -13z"/>
<path d="M2804 685 c0 -77 2 -107 3 -67 2 40 2 103 0 140 -2 37 -3 4 -3 -73z"/>
<path d="M800 790 c0 -6 7 -10 15 -10 8 0 15 2 15 4 0 2 -7 6 -15 10 -8 3 -15
1 -15 -4z"/>
<path d="M270 738 c0 -11 32 -10 48 1 9 5 3 8 -17 7 -17 -1 -31 -4 -31 -8z"/>
<path d="M3572 730 c0 -14 2 -19 5 -12 2 6 2 18 0 25 -3 6 -5 1 -5 -13z"/>
<path d="M4702 730 c0 -14 2 -19 5 -12 2 6 2 18 0 25 -3 6 -5 1 -5 -13z"/>
<path d="M4902 720 c0 -14 2 -19 5 -12 2 6 2 18 0 25 -3 6 -5 1 -5 -13z"/>
<path d="M1332 690 c0 -14 2 -19 5 -12 2 6 2 18 0 25 -3 6 -5 1 -5 -13z"/>
<path d="M2862 690 c0 -14 2 -19 5 -12 2 6 2 18 0 25 -3 6 -5 1 -5 -13z"/>
<path d="M640 690 c-8 -5 -12 -12 -9 -15 4 -3 12 1 19 10 14 17 11 19 -10 5z"/>
<path d="M4692 655 c0 -16 2 -22 5 -12 2 9 2 23 0 30 -3 6 -5 -1 -5 -18z"/>
<path d="M532 613 c1 -37 3 -46 5 -25 3 24 8 32 19 28 15 -6 17 -2 8 32 -4 12
-13 22 -20 22 -11 0 -14 -14 -12 -57z"/>
<path d="M3562 650 c0 -14 2 -19 5 -12 2 6 2 18 0 25 -3 6 -5 1 -5 -13z"/>
<path d="M4912 645 c0 -16 2 -22 5 -12 2 9 2 23 0 30 -3 6 -5 -1 -5 -18z"/>
<path d="M3781 634 c0 -11 3 -14 6 -6 3 7 2 16 -1 19 -3 4 -6 -2 -5 -13z"/>
<path d="M2852 610 c0 -14 2 -19 5 -12 2 6 2 18 0 25 -3 6 -5 1 -5 -13z"/>
<path d="M3422 595 c0 -16 2 -22 5 -12 2 9 2 23 0 30 -3 6 -5 -1 -5 -18z"/>
<path d="M2931 593 c0 -11 3 -13 6 -5 2 6 17 12 33 12 16 0 31 -6 33 -12 3 -8
6 -6 6 5 1 13 -7 17 -39 17 -32 0 -40 -4 -39 -17z"/>
<path d="M3640 606 c0 -2 16 -6 35 -8 19 -2 35 0 35 4 0 4 -16 8 -35 8 -19 0
-35 -2 -35 -4z"/>
<path d="M4770 603 c0 -5 16 -8 35 -8 19 0 35 3 35 8 0 4 -16 7 -35 7 -19 0
-35 -3 -35 -7z"/>
<path d="M4381 574 c0 -11 3 -14 6 -6 3 7 2 16 -1 19 -3 4 -6 -2 -5 -13z"/>
<path d="M4681 574 c0 -11 3 -14 6 -6 3 7 2 16 -1 19 -3 4 -6 -2 -5 -13z"/>
<path d="M2576 563 c-6 -14 -5 -15 5 -6 7 7 10 15 7 18 -3 3 -9 -2 -12 -12z"/>
<path d="M4921 564 c0 -11 3 -14 6 -6 3 7 2 16 -1 19 -3 4 -6 -2 -5 -13z"/>
<path d="M1106 553 c-6 -14 -5 -15 5 -6 7 7 10 15 7 18 -3 3 -9 -2 -12 -12z"/>
</g>
</svg>
